<svg xmlns="http://www.w3.org/2000/svg" width="15.457" height="15.456" viewBox="0 0 15.457 15.456">
  <g id="block-user" transform="translate(-1.501 -2.002)">
    <path id="Path_1184"  d="M12.232,2a3.731,3.731,0,1,0,3.731,3.731A3.733,3.733,0,0,0,12.232,2Zm0,1.066A2.665,2.665,0,1,1,9.567,5.733,2.666,2.666,0,0,1,12.232,3.068Z" transform="translate(-3.269)" fill="#e78c04" fill-rule="evenodd"/>
    <path id="Path_1185"  d="M2.567,23.332H9.229a.533.533,0,0,1,0,1.066H2.034a.533.533,0,0,1-.533-.533V22.8A4.8,4.8,0,0,1,6.3,18H9.229a.533.533,0,1,1,0,1.066H6.3A3.731,3.731,0,0,0,2.567,22.8Z" transform="translate(0 -7.472)" fill="#e78c04" fill-rule="evenodd"/>
    <path id="Path_1186"  d="M20.967,18a3.464,3.464,0,1,0,3.464,3.464A3.465,3.465,0,0,0,20.967,18Zm0,1.066a2.4,2.4,0,1,1-2.4,2.4A2.4,2.4,0,0,1,20.967,19.068Z" transform="translate(-7.473 -7.472)" fill="#e78c04" fill-rule="evenodd"/>
    <path id="Path_1187"  d="M23.409,19.764l-4.144,4.144a.533.533,0,1,0,.754.754l4.144-4.144a.533.533,0,0,0-.754-.754Z" transform="translate(-8.223 -8.222)" fill="#e78c04" fill-rule="evenodd"/>
  </g>
</svg>
