<svg xmlns="http://www.w3.org/2000/svg" width="14.702" height="15.456" viewBox="0 0 14.702 15.456">
  <g id="delete" transform="translate(-2.25 -1.75)">
    <path id="Path_1178" data-name="Path 1178" d="M12.988,17.944H7.2a2.3,2.3,0,0,1-2.262-2.156L4.25,5.353A.573.573,0,0,1,4.4,4.938a.581.581,0,0,1,.415-.188H15.37a.565.565,0,0,1,.565.6L15.28,15.788a2.3,2.3,0,0,1-2.292,2.156ZM5.449,5.881l.581,9.839A1.169,1.169,0,0,0,7.2,16.813h5.79a1.176,1.176,0,0,0,1.169-1.093l.611-9.8Z" transform="translate(-0.492 -0.738)" fill="#eb0000"/>
    <path id="Path_1179" data-name="Path 1179" d="M16.386,5.881H2.815a.565.565,0,1,1,0-1.131H16.386a.565.565,0,0,1,0,1.131Z" transform="translate(0 -0.738)" fill="#eb0000"/>
    <path id="Path_1180" data-name="Path 1180" d="M13.339,5.143H8.815a.573.573,0,0,1-.565-.565V3.22A1.508,1.508,0,0,1,9.72,1.75h2.714A1.508,1.508,0,0,1,13.9,3.258V4.577A.573.573,0,0,1,13.339,5.143ZM9.381,4.012h3.393V3.258a.339.339,0,0,0-.339-.339H9.72a.339.339,0,0,0-.339.339Z" transform="translate(-1.476 0)" fill="#eb0000"/>
    <path id="Path_1181" data-name="Path 1181" d="M14.815,15.912a.573.573,0,0,1-.565-.565V9.315a.565.565,0,0,1,1.131,0v6.031A.573.573,0,0,1,14.815,15.912Z" transform="translate(-2.953 -1.722)" fill="#eb0000"/>
    <path id="Path_1182" data-name="Path 1182" d="M8.815,15.912a.573.573,0,0,1-.565-.565V9.315a.565.565,0,0,1,1.131,0v6.031A.573.573,0,0,1,8.815,15.912Z" transform="translate(-1.476 -1.722)" fill="#eb0000"/>
    <path id="Path_1183" data-name="Path 1183" d="M11.815,15.912a.573.573,0,0,1-.565-.565V9.315a.565.565,0,0,1,1.131,0v6.031A.573.573,0,0,1,11.815,15.912Z" transform="translate(-2.215 -1.722)" fill="#eb0000"/>
  </g>
</svg>
