<svg xmlns="http://www.w3.org/2000/svg" width="14.997" height="14.997" viewBox="0 0 14.997 14.997">
  <g id="edit" transform="translate(-6.014 -6.031)">
    <g id="Group_829"  transform="translate(6.906 6.698)">
      <path id="Path_1172"  d="M9.682,18.517a.577.577,0,0,1-.408-.985l9.019-9.019a.577.577,0,0,1,.816.816L10.09,18.347A.576.576,0,0,1,9.682,18.517Z" transform="translate(-9.105 -8.343)" fill="#aad305"/>
    </g>
    <g id="Group_830"  transform="translate(6.015 15.717)">
      <path id="Path_1173"  d="M6.593,44.907a.584.584,0,0,1-.121-.013.577.577,0,0,1-.443-.685l.892-4.156a.577.577,0,0,1,1.129.242l-.892,4.156A.577.577,0,0,1,6.593,44.907Z" transform="translate(-6.015 -39.597)" fill="#aad305"/>
    </g>
    <g id="Group_831" transform="translate(10.171 9.963)">
      <path id="Path_1174"  d="M21,29.83a.577.577,0,0,1-.408-.985l9.019-9.019a.577.577,0,0,1,.816.816L21.4,29.661A.576.576,0,0,1,21,29.83Z" transform="translate(-20.418 -19.657)" fill="#aad305"/>
    </g>
    <g id="Group_832"  transform="translate(6.014 18.982)">
      <path id="Path_1175"  d="M6.591,52.956a.577.577,0,0,1-.121-1.142l4.156-.892a.577.577,0,0,1,.242,1.129l-4.156.892a.565.565,0,0,1-.121.013Z" transform="translate(-6.014 -50.91)" fill="#aad305"/>
    </g>
    <g id="Group_833" transform="translate(14.293 8.331)">
      <path id="Path_1176"  d="M38.544,18.419a.574.574,0,0,1-.408-.169l-3.265-3.265a.577.577,0,0,1,.816-.816l3.265,3.265a.577.577,0,0,1-.408.985Z" transform="translate(-34.702 -14)" fill="#aad305"/>
    </g>
    <g id="Group_834" transform="translate(15.925 6.031)">
      <path id="Path_1177"  d="M44.2,11.117a.577.577,0,0,1-.408-.985,1.731,1.731,0,0,0-2.449-2.448.577.577,0,0,1-.816-.816,2.886,2.886,0,0,1,4.081,4.081A.574.574,0,0,1,44.2,11.117Z" transform="translate(-40.357 -6.031)" fill="#aad305"/>
    </g>
  </g>
</svg>
